<mxfile host="app.diagrams.net" agent="Mozilla/5.0 (X11; Linux x86_64) AppleWebKit/537.36 (KHTML, like Gecko) Chrome/130.0.0.0 Safari/537.36" version="24.8.3" pages="3">
  <diagram name="ex_001" id="72iRGVidV67nzGkt4hGO">
    <mxGraphModel dx="987" dy="543" grid="1" gridSize="10" guides="1" tooltips="1" connect="1" arrows="1" fold="1" page="1" pageScale="1" pageWidth="827" pageHeight="1169" math="0" shadow="0">
      <root>
        <mxCell id="0" />
        <mxCell id="1" parent="0" />
        <mxCell id="6aprX9_p_VO2uKJTswhL-20" value="[Início]&#xa;                             |&#xa;                             ▼&#xa;        &quot;Direção Contrata Caderno de Encargos com o Cliente&quot;&#xa;                             |&#xa;                             ▼&#xa;            &quot;Direção Nomeia Analista Responsável&quot;&#xa;                             |&#xa;                             ▼&#xa;              &quot;Analista Analisa Caderno de Encargos&quot;&#xa;                             |&#xa;                             ▼&#xa;┌────────────────────────────────────────────────────┐&#xa;│             Paralelo (Fork)                         │&#xa;└────────────────────────────────────────────────────┘&#xa;               /                     \&#xa;              /                       \&#xa;             ▼                         ▼&#xa;&quot;Analista Entrevista Cliente&quot;    &quot;Analista Recolhe Documentação&quot;&#xa;             |                         |&#xa;             ▼                         ▼&#xa;        &quot;Entrevista Concluída&quot;    &quot;Documentação Relevante Obtida&quot;&#xa;               \                     /&#xa;                \                   /&#xa;                 ▼                 ▼&#xa;              &quot;Analista Elabora Relatório de Especificação de Requisitos&quot;&#xa;                             |&#xa;                             ▼&#xa;          &quot;Submete Relatório à Apreciação da Direção da Empresa&quot;&#xa;                             |&#xa;                             ▼&#xa;               [Decisão: Direção Aprova Relatório?]&#xa;                             |&#xa;                ┌────────────┴────────────┐&#xa;                |                         |&#xa;               Não                        Sim&#xa;                |                          |&#xa;                ▼                          ▼&#xa;&quot;Analista Elabora Nova Versão com          &quot;Relatório Aprovado pela Direção&quot;&#xa;         Alterações Propostas&quot;                    |&#xa;                |                          |&#xa;                └──────────────────────────┘&#xa;                             |&#xa;                             ▼&#xa;            &quot;Submete Relatório à Apreciação do Cliente&quot;&#xa;                             |&#xa;                             ▼&#xa;               [Decisão: Cliente Aprova Relatório?]&#xa;                             |&#xa;                ┌────────────┴────────────┐&#xa;                |                         |&#xa;               Não                        Sim&#xa;                |                          |&#xa;                ▼                          ▼&#xa;&quot;Analista Elabora Nova Versão para          &quot;Relatório Aprovado pelo Cliente&quot;&#xa;     Submeter à Direção&quot;                           |&#xa;                |                          |&#xa;                └──────────────────────────┘&#xa;                             |&#xa;                             ▼&#xa;                         [Fim]" style="text;whiteSpace=wrap;" vertex="1" parent="1">
          <mxGeometry x="660" y="850" width="490" height="900" as="geometry" />
        </mxCell>
        <mxCell id="6aprX9_p_VO2uKJTswhL-24" style="edgeStyle=orthogonalEdgeStyle;rounded=0;orthogonalLoop=1;jettySize=auto;html=1;strokeColor=#FF0000;" edge="1" parent="1" source="6aprX9_p_VO2uKJTswhL-21" target="6aprX9_p_VO2uKJTswhL-22">
          <mxGeometry relative="1" as="geometry" />
        </mxCell>
        <mxCell id="6aprX9_p_VO2uKJTswhL-21" value="" style="ellipse;whiteSpace=wrap;html=1;aspect=fixed;fillColor=#000000;strokeColor=#000000;" vertex="1" parent="1">
          <mxGeometry x="360" y="840" width="40" height="40" as="geometry" />
        </mxCell>
        <mxCell id="6aprX9_p_VO2uKJTswhL-22" value="Contrata Caderno Encargos Cliente" style="rounded=1;whiteSpace=wrap;html=1;arcSize=40;fontColor=#000000;fillColor=#ffffc0;strokeColor=#ff0000;" vertex="1" parent="1">
          <mxGeometry x="320" y="950" width="120" height="40" as="geometry" />
        </mxCell>
        <mxCell id="6aprX9_p_VO2uKJTswhL-23" value="" style="edgeStyle=orthogonalEdgeStyle;html=1;verticalAlign=bottom;endArrow=open;endSize=8;strokeColor=#ff0000;rounded=0;" edge="1" source="6aprX9_p_VO2uKJTswhL-22" parent="1">
          <mxGeometry relative="1" as="geometry">
            <mxPoint x="380" y="1050" as="targetPoint" />
          </mxGeometry>
        </mxCell>
        <mxCell id="6aprX9_p_VO2uKJTswhL-31" value="" style="edgeStyle=orthogonalEdgeStyle;rounded=0;orthogonalLoop=1;jettySize=auto;html=1;endArrow=openThin;endFill=0;strokeColor=#FF0000;" edge="1" parent="1" source="6aprX9_p_VO2uKJTswhL-25" target="6aprX9_p_VO2uKJTswhL-30">
          <mxGeometry relative="1" as="geometry" />
        </mxCell>
        <mxCell id="6aprX9_p_VO2uKJTswhL-25" value="Nomear Analista Responsável" style="rounded=1;whiteSpace=wrap;html=1;arcSize=40;fontColor=#000000;fillColor=#ffffc0;strokeColor=#ff0000;" vertex="1" parent="1">
          <mxGeometry x="320" y="1050" width="120" height="40" as="geometry" />
        </mxCell>
        <mxCell id="6aprX9_p_VO2uKJTswhL-30" value="Analisar Caderno de Encargos" style="rounded=1;whiteSpace=wrap;html=1;arcSize=40;fontColor=#000000;fillColor=#ffffc0;strokeColor=#ff0000;" vertex="1" parent="1">
          <mxGeometry x="320" y="1150" width="120" height="40" as="geometry" />
        </mxCell>
        <mxCell id="6aprX9_p_VO2uKJTswhL-41" style="edgeStyle=orthogonalEdgeStyle;rounded=0;orthogonalLoop=1;jettySize=auto;html=1;" edge="1" parent="1" source="6aprX9_p_VO2uKJTswhL-32" target="6aprX9_p_VO2uKJTswhL-36">
          <mxGeometry relative="1" as="geometry" />
        </mxCell>
        <mxCell id="6aprX9_p_VO2uKJTswhL-32" value="" style="shape=line;html=1;strokeWidth=6;strokeColor=#ff0000;" vertex="1" parent="1">
          <mxGeometry x="290" y="1260" width="200" height="10" as="geometry" />
        </mxCell>
        <mxCell id="6aprX9_p_VO2uKJTswhL-35" style="edgeStyle=orthogonalEdgeStyle;rounded=0;orthogonalLoop=1;jettySize=auto;html=1;entryX=0.45;entryY=0.283;entryDx=0;entryDy=0;entryPerimeter=0;strokeColor=#FF0000;endArrow=open;endFill=0;" edge="1" parent="1" source="6aprX9_p_VO2uKJTswhL-30" target="6aprX9_p_VO2uKJTswhL-32">
          <mxGeometry relative="1" as="geometry" />
        </mxCell>
        <mxCell id="6aprX9_p_VO2uKJTswhL-36" value="&amp;nbsp;Entrevistar Cliente" style="rounded=1;whiteSpace=wrap;html=1;arcSize=40;fontColor=#000000;fillColor=#ffffc0;strokeColor=#ff0000;" vertex="1" parent="1">
          <mxGeometry x="220" y="1330" width="120" height="40" as="geometry" />
        </mxCell>
        <mxCell id="6aprX9_p_VO2uKJTswhL-37" value="Recolher Documentação" style="rounded=1;whiteSpace=wrap;html=1;arcSize=40;fontColor=#000000;fillColor=#ffffc0;strokeColor=#ff0000;" vertex="1" parent="1">
          <mxGeometry x="390" y="1330" width="120" height="40" as="geometry" />
        </mxCell>
        <mxCell id="6aprX9_p_VO2uKJTswhL-39" value="Obter Documentação relevante" style="rounded=1;whiteSpace=wrap;html=1;arcSize=40;fontColor=#000000;fillColor=#ffffc0;strokeColor=#ff0000;" vertex="1" parent="1">
          <mxGeometry x="390" y="1420" width="120" height="40" as="geometry" />
        </mxCell>
        <mxCell id="6aprX9_p_VO2uKJTswhL-40" value="Elaborar Relatório à Direção" style="rounded=1;whiteSpace=wrap;html=1;arcSize=40;fontColor=#000000;fillColor=#ffffc0;strokeColor=#ff0000;" vertex="1" parent="1">
          <mxGeometry x="220" y="1420" width="120" height="40" as="geometry" />
        </mxCell>
      </root>
    </mxGraphModel>
  </diagram>
  <diagram id="pQeFYq4HYinRpPwZYIcd" name="ex_002">
    <mxGraphModel dx="420" dy="750" grid="1" gridSize="10" guides="1" tooltips="1" connect="1" arrows="1" fold="1" page="1" pageScale="1" pageWidth="827" pageHeight="1169" math="0" shadow="0">
      <root>
        <mxCell id="0" />
        <mxCell id="1" parent="0" />
      </root>
    </mxGraphModel>
  </diagram>
  <diagram id="nDVoapjW3eWYYLYuCr5o" name="Página-3">
    <mxGraphModel dx="210" dy="375" grid="1" gridSize="10" guides="1" tooltips="1" connect="1" arrows="1" fold="1" page="1" pageScale="1" pageWidth="827" pageHeight="1169" math="0" shadow="0">
      <root>
        <mxCell id="0" />
        <mxCell id="1" parent="0" />
      </root>
    </mxGraphModel>
  </diagram>
</mxfile>
